<?xml version="1.0" encoding="iso-8859-1" standalone="no"?> 
<?xml-stylesheet href="Napkin.css" type="text/css"?> 
<svg xmlns="http://www.w3.org/2000/svg" xmlns:xlink="http://www.w3.org/1999/xlink" width="300.9401pt" height="67.49092pt" viewBox="-150.47005 -28.81981 300.9401 67.49092 "> 
<g transform="translate(0, 38.67111 ) scale(1,-1) translate(0,28.81981 )"> 
                                         </p><g stroke="#000" fill="#000">
 <g stroke-width="0.4">
 <g transform="translate(-150.47005,-22.07494)">
 <g fill="#000">
 <text style="stroke:none" transform="scale(1,-1) translate(150.47005,0)" text-anchor="middle"  font-size="10.95"> 
     <g transform="translate(-12.99767,0.0)">
 <g fill="#000">
 <text style="stroke:none" transform="scale(1,-1) translate(12.99767,0)" text-anchor="middle"  font-size="10.95"> 
<g fill="#000">
 <g stroke="none"> <tspan font-family="cmmi" font-size="10">I</tspan><tspan baseline-shift="sub"><tspan font-family="cmmi" font-size="8">K</tspan></tspan>(<tspan font-family="eufm" font-size="10">𝔣</tspan>)</g> </g>
 </text> 
</g>
 </g>
           <g transform="translate(-14.46602,0.0)">
 <g fill="#000">
 <text style="stroke:none" transform="scale(1,-1) translate(14.46602,0)" text-anchor="middle"  font-size="10.95"> 
<g fill="#000">
 <g stroke="none"> <tspan font-family="cmmi" font-size="10">C</tspan><tspan baseline-shift="sub"><tspan font-family="cmmi" font-size="8">K</tspan></tspan>(<tspan font-family="eufm" font-size="10">𝔣</tspan>)</g> </g>
 </text> 
</g>
 </g>
                                              <g transform="translate(-24.31815,0.0)">
 <g fill="#000">
 <text style="stroke:none" transform="scale(1,-1) translate(24.31815,0)" text-anchor="middle"  font-size="10.95"> 
<g fill="#000">
 <g stroke="none"> Gal(<tspan font-family="cmmi" font-size="10">L∕K</tspan>)</g> </g>
 </text> 
</g>
 </g>
 
                                               <g transform="translate(-40.40994,0.0)">
 <g fill="#000">
 <text style="stroke:none" transform="scale(1,-1) translate(40.40994,0)" text-anchor="middle"  font-size="10.95"> 
<g fill="#000">
 <g stroke="none"> <tspan font-family="cmmi" font-size="10">I</tspan><tspan baseline-shift="sub"><tspan font-family="cmmi" font-size="8">K</tspan></tspan>(<tspan font-family="eufm" font-size="10">𝔣</tspan>)<tspan font-family="cmmi" font-size="10">∕H</tspan>(<tspan font-family="cmmi" font-size="10">L∕K,</tspan><tspan font-family="eufm" font-size="10">𝔣</tspan>)</g> </g>
 </text> 
</g>
 </g>
      </text> 
</g>
 </g>
 <g stroke-width="0.43799">
 <path d=" M -114.84558 19.3374 L -89.40356 19.3374  " fill="none"/>
 <g transform="translate(-90.76132,19.3374)">
 <g stroke-dasharray="none" stroke-dashoffset="0.0">
 <g stroke-linecap="round">
 <g stroke-linejoin="round">
 <path d=" M -2.27753 2.6279 C -1.86143 1.05113 -0.9342 0.30658 0.0 0.0 C -0.9342 -0.30658 -1.86143 -1.05113 -2.27753 -2.6279  " fill="none"/>
 </g>
 </g>
 </g>
  </g>
 <g transform="translate(-89.18457,19.3374)">
 <g stroke-dasharray="none" stroke-dashoffset="0.0">
 <g stroke-linecap="round">
 <g stroke-linejoin="round">
 <path d=" M -2.27753 2.6279 C -1.86143 1.05113 -0.9342 0.30658 0.0 0.0 C -0.9342 -0.30658 -1.86143 -1.05113 -2.27753 -2.6279  " fill="none"/>
 </g>
 </g>
 </g>
  </g>
 </g>
 <g stroke-width="0.43799">
 <path d=" M -50.2044 11.07251 L -2.07378 -9.48305  " fill="none"/>
 <g transform="matrix(0.91962,-0.39273,0.39273,0.91962,-3.3224,-8.9498)">
 <g stroke-dasharray="none" stroke-dashoffset="0.0">
 <g stroke-linecap="round">
 <g stroke-linejoin="round">
 <path d=" M -2.27753 2.6279 C -1.86143 1.05113 -0.9342 0.30658 0.0 0.0 C -0.9342 -0.30658 -1.86143 -1.05113 -2.27753 -2.6279  " fill="none"/>
 </g>
 </g>
 </g>
  </g>
 <g transform="matrix(0.91962,-0.39273,0.39273,0.91962,-1.8724,-9.56903)">
 <g stroke-dasharray="none" stroke-dashoffset="0.0">
 <g stroke-linecap="round">
 <g stroke-linejoin="round">
 <path d=" M -2.27753 2.6279 C -1.86143 1.05113 -0.9342 0.30658 0.0 0.0 C -0.9342 -0.30658 -1.86143 -1.05113 -2.27753 -2.6279  " fill="none"/>
 </g>
 </g>
 </g>
  </g>
 </g>
 <g stroke-width="0.43799">
 <path d=" M -50.2044 19.3374 L 91.76663 19.3374  " fill="none"/>
 <g transform="translate(90.40887,19.3374)">
 <g stroke-dasharray="none" stroke-dashoffset="0.0">
 <g stroke-linecap="round">
 <g stroke-linejoin="round">
 <path d=" M -2.27753 2.6279 C -1.86143 1.05113 -0.9342 0.30658 0.0 0.0 C -0.9342 -0.30658 -1.86143 -1.05113 -2.27753 -2.6279  " fill="none"/>
 </g>
 </g>
 </g>
  </g>
 <g transform="translate(91.98563,19.3374)">
 <g stroke-dasharray="none" stroke-dashoffset="0.0">
 <g stroke-linecap="round">
 <g stroke-linejoin="round">
 <path d=" M -2.27753 2.6279 C -1.86143 1.05113 -0.9342 0.30658 0.0 0.0 C -0.9342 -0.30658 -1.86143 -1.05113 -2.27753 -2.6279  " fill="none"/>
 </g>
 </g>
 </g>
  </g>
 <g transform="translate(6.98341,27.11375)">
 <g fill="#000">
 <text style="stroke:none" transform="scale(1,-1) translate(14.0167,0)" text-anchor="middle"  font-size="10.95"> 
<g fill="#000">
 <g stroke="none"> <img 
src="Na2857x.png" alt="(L∕K-)
  ∙"  class="left" align="middle" /></g> </g>
 </text> 
</g>
 </g>
 </g>
 <g stroke-width="0.43799">
 <path d=" M 46.14264 -9.65504 L 95.89192 9.4977  " fill="none"/>
 <g transform="matrix(0.93321,0.35925,-0.35925,0.93321,96.09627,9.57635)">
 <g stroke-dasharray="none" stroke-dashoffset="0.0">
 <g stroke-linecap="round">
 <g stroke-linejoin="round">
 <path d=" M -2.27753 2.6279 C -1.86143 1.05113 -0.9342 0.30658 0.0 0.0 C -0.9342 -0.30658 -1.86143 -1.05113 -2.27753 -2.6279  " fill="none"/>
 </g>
 </g>
 </g>
  </g>
 <g transform="translate(73.79791,-7.62408)">
 <g fill="#000">
 <text style="stroke:none" transform="scale(1,-1) translate(3.3056,0)" text-anchor="middle"  font-size="10.95"> 
<g fill="#000">
 <g stroke="none"> <img 
src="Na2858x.png" alt="∼="  class="cong"  /> </g> </g>
 </text> 
</g>
 </g>
 </g>
 </g>
 </g>
                                            </g> 
</svg> 
