<?xml version="1.0" encoding="iso-8859-1" standalone="no"?> 
<?xml-stylesheet href="Napkin.css" type="text/css"?> 
<svg xmlns="http://www.w3.org/2000/svg" xmlns:xlink="http://www.w3.org/1999/xlink" width="59.2508pt" height="24.65445pt" viewBox="-29.6254 -18.07152 59.2508 24.65445 "> 
<g transform="translate(0, 6.58293 ) scale(1,-1) translate(0,18.07152 )"> 
        <g stroke="#000" fill="#000">
 <g stroke-width="0.4">
 <g transform="translate(0.0,-2.73332)">
 <g fill="#000">
 <text style="stroke:none" transform="scale(1,-1) translate(0.0,0)" text-anchor="middle"  font-size="10.95"> 
<g fill="#000">
 <g stroke="none"> </g> </g>
 </text> 
</g>
 </g>
 <path d="  " fill="none"/>
 <g stroke="#000">
 <g fill="#ff8000">
 <g stroke-width="0.5">
 <g stroke-opacity="1">
 <g fill-opacity="1">
 <g fill="#808080">
 <g transform="translate(2.35728,-2.35728)">
 <path d=" M 25.3754 6.33293 L -25.3754 6.33293 C -27.58456 6.33293 -29.3754 4.5421 -29.3754 2.33293 L -29.3754 -13.82152 C -29.3754 -16.03069 -27.58456 -17.82152 -25.3754 -17.82152 L 25.3754 -17.82152 C 27.58456 -17.82152 29.3754 -16.03069 29.3754 -13.82152 L 29.3754 2.33293 C 29.3754 4.5421 27.58456 6.33293 25.3754 6.33293 Z M -29.3754 -17.82152  " stroke="none"/>
 </g>
 </g>
 </g>
 </g>
 <g stroke="#000">
 <g fill="#ff8000">
 <g stroke-width="0.5">
 <path d=" M 25.3754 6.33293 L -25.3754 6.33293 C -27.58456 6.33293 -29.3754 4.5421 -29.3754 2.33293 L -29.3754 -13.82152 C -29.3754 -16.03069 -27.58456 -17.82152 -25.3754 -17.82152 L 25.3754 -17.82152 C 27.58456 -17.82152 29.3754 -16.03069 29.3754 -13.82152 L 29.3754 2.33293 C 29.3754 4.5421 27.58456 6.33293 25.3754 6.33293 Z M -29.3754 -17.82152  " />
 </g>
 </g>
 </g>
 <g transform="translate(-25.60373,-12.4943)">
 <g fill="#000">
 <text style="stroke:none" transform="scale(1,-1) translate(25.60373,0)" text-anchor="middle"  font-size="10.95"> 
<g fill="#000">
 <g stroke="none">    <tspan font-family="cmr" font-size="8">do later</tspan>
<tspan font-family="cmr" font-size="8">tonight</tspan>         </g> </g>
 </text> 
</g>
 </g>
 </g>
 </g>
 </g>
 </g>
 </g>
  </g> 
</svg> 
