<?xml version="1.0" encoding="iso-8859-1" standalone="no"?> 
<?xml-stylesheet href="Napkin.css" type="text/css"?> 
<svg xmlns="http://www.w3.org/2000/svg" xmlns:xlink="http://www.w3.org/1999/xlink" width="227.25493pt" height="206.53537pt" viewBox="-113.617 -26.56412 227.25493 206.53537 "> 
<g transform="translate(0, 179.97125 ) scale(1,-1) translate(0,26.56412 )"> 
                               </p>
                               <g stroke="#000" fill="#000">
 <g stroke-width="0.4">
 <g stroke-width="0.5">
 <g stroke="#000" fill="#000">
 <g fill="#fff">
 <g stroke-width="0.5">
 <g stroke="#000" fill="#000">
 <g fill="#fff">
 <path d=" M 9.0 0.0 C 9.0 4.97063 4.97063 9.0 0.0 9.0 C -4.97063 9.0 -9.0 4.97063 -9.0 0.0 C -9.0 -4.97063 -4.97063 -9.0 0.0 -9.0 C 4.97063 -9.0 9.0 -4.97063 9.0 0.0 Z M 0.0 0.0  " />
 </g>
 </g>
 </g>
 <g transform="translate(-2.84966,-3.80208)">
 <g fill="#000">
 <text style="stroke:none" transform="scale(1,-1) translate(2.84966,0)" text-anchor="middle"  font-size="10.95"> 
<g fill="#000">
 <g stroke="none"> <tspan font-family="cmmi" font-size="10">d</tspan></g> </g>
 </text> 
</g>
 </g>
 </g>
 </g>
 </g>
 <g stroke-width="0.5">
 <g stroke="#000" fill="#000">
 <g fill="#fff">
 <g stroke-width="0.5">
 <g stroke="#000" fill="#000">
 <g fill="#fff">
 <path d=" M 79.40453 70.40453 C 79.40453 75.37515 75.37515 79.40453 70.40453 79.40453 C 65.4339 79.40453 61.40453 75.37515 61.40453 70.40453 C 61.40453 65.4339 65.4339 61.40453 70.40453 61.40453 C 75.37515 61.40453 79.40453 65.4339 79.40453 70.40453 Z M 70.40453 70.40453  " />
 </g>
 </g>
 </g>
 <g transform="translate(68.03519,68.04724)">
 <g fill="#000">
 <text style="stroke:none" transform="scale(1,-1) translate(2.36934,0)" text-anchor="middle"  font-size="10.95"> 
<g fill="#000">
 <g stroke="none"> <tspan font-family="cmmi" font-size="10">c</tspan> </g> </g>
 </text> 
</g>
 </g>
 </g>
 </g>
 </g>
 <g stroke-width="0.5">
 <g stroke="#000" fill="#000">
 <g fill="#fff">
 <g stroke-width="0.5">
 <g stroke="#000" fill="#000">
 <g fill="#fff">
 <path d=" M 8.97552 140.78458 C 8.97552 145.7552 4.94615 149.78458 -0.02448 149.78458 C -4.9951 149.78458 -9.02448 145.7552 -9.02448 140.78458 C -9.02448 135.81395 -4.9951 131.78458 -0.02448 131.78458 C 4.94615 131.78458 8.97552 135.81395 8.97552 140.78458 Z M -0.02448 140.78458  " />
 </g>
 </g>
 </g>
 <g transform="translate(-2.9185,138.42729)">
 <g fill="#000">
 <text style="stroke:none" transform="scale(1,-1) translate(2.89403,0)" text-anchor="middle"  font-size="10.95"> 
<g fill="#000">
 <g stroke="none"> <tspan font-family="cmmi" font-size="10">a</tspan></g> </g>
 </text> 
</g>
 </g>
 </g>
 </g>
 </g>
 <g stroke-width="0.5">
 <g stroke="#000" fill="#000">
 <g fill="#fff">
 <g stroke-width="0.5">
 <g stroke="#000" fill="#000">
 <g fill="#fff">
 <path d=" M -61.42899 70.33105 C -61.42899 75.30168 -65.45836 79.33105 -70.42899 79.33105 C -75.39961 79.33105 -79.42899 75.30168 -79.42899 70.33105 C -79.42899 65.36043 -75.39961 61.33105 -70.42899 61.33105 C -65.45836 61.33105 -61.42899 65.36043 -61.42899 70.33105 Z M -70.42899 70.33105  " />
 </g>
 </g>
 </g>
 <g transform="translate(-72.77867,66.52898)">
 <g fill="#000">
 <text style="stroke:none" transform="scale(1,-1) translate(2.34969,0)" text-anchor="middle"  font-size="10.95"> 
<g fill="#000">
 <g stroke="none"> <tspan font-family="cmmi" font-size="10">b</tspan> </g> </g>
 </text> 
</g>
 </g>
 </g>
 </g>
 </g>
 <g stroke="#000" fill="#000">
 <g stroke-width="0.8">
 <path d=" M -6.38861 134.44452 L -64.08029 76.71236  " fill="none"/>
 <g transform="matrix(-0.70685,-0.70734,0.70734,-0.70685,-64.08029,76.71236)">
 <path d=" M -5.40001 4.32 L 0.0 0.0 L -5.40001 -4.32  " fill="none"/>
  </g>
 <g fill="#fff">
 <g fill="#fff">
 <path d=" M -51.42773 97.38231 h 32.38657 v 16.39224 h -32.38657 Z  " stroke="none"/>
 </g>
 <g transform="translate(-47.77812,102.52078)">
 <g fill="#000">
 <text style="stroke:none" transform="scale(1,-1) translate(12.54367,0)" text-anchor="middle"  font-size="10.95"> 
<g fill="#000">
 <g stroke="none"> <tspan font-family="cmmi" font-size="10">a </tspan><tspan font-family="cmsy" font-size="10">≤ </tspan><tspan font-family="cmmi" font-size="10">b</tspan></g> </g>
 </text> 
</g>
 </g>
 </g>
 </g>
 </g>
 <g stroke="#000" fill="#000">
 <g stroke-width="0.8">
 <path d=" M 6.34407 134.4489 L 64.05128 76.7813  " fill="none"/>
 <g transform="matrix(0.70732,-0.70683,0.70683,0.70732,64.05128,76.7813)">
 <path d=" M -5.40001 4.32 L 0.0 0.0 L -5.40001 -4.32  " fill="none"/>
  </g>
 <g fill="#fff">
 <g fill="#fff">
 <path d=" M 18.98471 97.73915 h 32.42587 v 15.75195 h -32.42587 Z  " stroke="none"/>
 </g>
 <g transform="translate(22.63432,102.87762)">
 <g fill="#000">
 <text style="stroke:none" transform="scale(1,-1) translate(12.56332,0)" text-anchor="middle"  font-size="10.95"> 
<g fill="#000">
 <g stroke="none"> <tspan font-family="cmmi" font-size="10">a </tspan><tspan font-family="cmsy" font-size="10">≤ </tspan><tspan font-family="cmmi" font-size="10">c</tspan></g> </g>
 </text> 
</g>
 </g>
 </g>
 </g>
 </g>
 <g stroke="#000" fill="#000">
 <g stroke-width="0.8">
 <path d=" M -0.02296 131.80884 L -0.0015 9.00148  " fill="none"/>
 <g transform="matrix(0.00017,-0.99998,0.99998,0.00017,-0.0015,9.00148)">
 <path d=" M -5.40001 4.32 L 0.0 0.0 L -5.40001 -4.32  " fill="none"/>
  </g>
 <g fill="#fff">
 <g fill="#fff">
 <path d=" M -16.70547 62.20906 h 33.3865 v 16.39224 h -33.3865 Z  " stroke="none"/>
 </g>
 <g transform="translate(-13.05586,67.34753)">
 <g fill="#000">
 <text style="stroke:none" transform="scale(1,-1) translate(13.04364,0)" text-anchor="middle"  font-size="10.95"> 
<g fill="#000">
 <g stroke="none"> <tspan font-family="cmmi" font-size="10">a </tspan><tspan font-family="cmsy" font-size="10">≤ </tspan><tspan font-family="cmmi" font-size="10">d</tspan></g> </g>
 </text> 
</g>
 </g>
 </g>
 </g>
 </g>
 <g stroke="#000" fill="#000">
 <g stroke-width="0.8">
 <path d=" M 64.05225 64.05225 L 6.36511 6.36511  " fill="none"/>
 <g transform="matrix(-0.7071,-0.7071,0.7071,-0.7071,6.36511,6.36511)">
 <path d=" M -5.40001 4.32 L 0.0 0.0 L -5.40001 -4.32  " fill="none"/>
  </g>
 <g fill="#fff">
 <g fill="#fff">
 <path d=" M 19.04015 27.01259 h 32.33713 v 16.39224 h -32.33713 Z  " stroke="none"/>
 </g>
 <g transform="translate(22.68976,32.15106)">
 <g fill="#000">
 <text style="stroke:none" transform="scale(1,-1) translate(12.51895,0)" text-anchor="middle"  font-size="10.95"> 
<g fill="#000">
 <g stroke="none"> <tspan font-family="cmmi" font-size="10">c </tspan><tspan font-family="cmsy" font-size="10">≤ </tspan><tspan font-family="cmmi" font-size="10">d</tspan> </g> </g>
 </text> 
</g>
 </g>
 </g>
 </g>
 </g>
 <g stroke="#000" fill="#000">
 <path d="  " fill="none"/>
 <g stroke-width="0.6">
 <g stroke-width="0.8">
 <path d=" M 8.06291 148.90346 C 26.13966 166.97444 -26.18858 166.97444 -6.3863 147.17848  " fill="none"/>
 <g transform="matrix(-0.70721,-0.70697,0.70697,-0.70721,8.06293,148.90347)">
 <g stroke-dasharray="none" stroke-dashoffset="0.0">
 <g stroke-linejoin="round">
 <path d=" M 1.03998 0.0 C -0.26 0.26 -1.55997 0.77998 -3.11993 1.68996 C -1.55997 0.51999 -1.55997 -0.51999 -3.11993 -1.68996 C -1.55997 -0.77998 -0.26 -0.26 1.03998 0.0 Z  " />
 </g>
 </g>
  </g>
 <g transform="translate(-7.0944,168.71748)">
 <g fill="#000">
 <text style="stroke:none" transform="scale(1,-1) translate(7.06995,0)" text-anchor="middle"  font-size="10.95"> 
<g fill="#000">
 <g stroke="none"> id <tspan baseline-shift="sub"><tspan font-family="cmmi" font-size="8">a</tspan> </tspan>  </g> </g>
 </text> 
</g>
 </g>
 </g>
 </g>
 </g>
 <g stroke="#000" fill="#000">
 <path d="  " fill="none"/>
 <g stroke-width="0.6">
 <g stroke-width="0.8">
 <path d=" M -78.5323 78.43436 C -96.606 96.50806 -96.606 44.17975 -76.81003 63.98207  " fill="none"/>
 <g transform="matrix(0.7071,-0.7071,0.7071,0.7071,-78.53232,78.43437)">
 <g stroke-dasharray="none" stroke-dashoffset="0.0">
 <g stroke-linejoin="round">
 <path d=" M 1.03998 0.0 C -0.26 0.26 -1.55997 0.77998 -3.11993 1.68996 C -1.55997 0.51999 -1.55997 -0.51999 -3.11993 -1.68996 C -1.55997 -0.77998 -0.26 -0.26 1.03998 0.0 Z  " />
 </g>
 </g>
  </g>
 <g transform="translate(-109.96739,67.43407)">
 <g fill="#000">
 <text style="stroke:none" transform="scale(1,-1) translate(6.63058,0)" text-anchor="middle"  font-size="10.95"> 
<g fill="#000">
 <g stroke="none"> id <tspan baseline-shift="sub"><tspan font-family="cmmi" font-size="8">b</tspan> </tspan>  </g> </g>
 </text> 
</g>
 </g>
 </g>
 </g>
 </g>
 <g stroke="#000" fill="#000">
 <path d="  " fill="none"/>
 <g stroke-width="0.6">
 <g stroke-width="0.8">
 <path d=" M 78.51054 62.32999 C 96.58154 44.25323 96.58154 96.58154 76.78253 76.78253  " fill="none"/>
 <g transform="matrix(-0.70699,0.70721,-0.70721,-0.70699,78.51056,62.32997)">
 <g stroke-dasharray="none" stroke-dashoffset="0.0">
 <g stroke-linejoin="round">
 <path d=" M 1.03998 0.0 C -0.26 0.26 -1.55997 0.77998 -3.11993 1.68996 C -1.55997 0.51999 -1.55997 -0.51999 -3.11993 -1.68996 C -1.55997 -0.77998 -0.26 -0.26 1.03998 0.0 Z  " />
 </g>
 </g>
  </g>
 <g transform="translate(96.68176,67.43684)">
 <g fill="#000">
 <text style="stroke:none" transform="scale(1,-1) translate(6.65327,0)" text-anchor="middle"  font-size="10.95"> 
<g fill="#000">
 <g stroke="none"> id <tspan baseline-shift="sub"><tspan font-family="cmmi" font-size="8">c</tspan> </tspan>  </g> </g>
 </text> 
</g>
 </g>
 </g>
 </g>
 </g>
 <g stroke="#000" fill="#000">
 <path d="  " fill="none"/>
 <g stroke-width="0.6">
 <g stroke-width="0.8">
 <path d=" M -8.09042 8.09042 C -26.16412 26.16412 -26.16412 -26.16412 -6.36511 -6.36511  " fill="none"/>
 <g transform="matrix(0.7071,-0.7071,0.7071,0.7071,-8.09044,8.09044)">
 <g stroke-dasharray="none" stroke-dashoffset="0.0">
 <g stroke-linejoin="round">
 <path d=" M 1.03998 0.0 C -0.26 0.26 -1.55997 0.77998 -3.11993 1.68996 C -1.55997 0.51999 -1.55997 -0.51999 -3.11993 -1.68996 C -1.55997 -0.77998 -0.26 -0.26 1.03998 0.0 Z  " />
 </g>
 </g>
  </g>
 <g transform="translate(-40.26263,-2.91013)">
 <g fill="#000">
 <text style="stroke:none" transform="scale(1,-1) translate(6.99933,0)" text-anchor="middle"  font-size="10.95"> 
<g fill="#000">
 <g stroke="none"> id <tspan baseline-shift="sub"><tspan font-family="cmmi" font-size="8">d</tspan> </tspan>  </g> </g>
 </text> 
</g>
 </g>
 </g>
 </g>
 </g>
 </g>
 </g>
 
                                                                    </g> 
</svg> 
