<?xml version="1.0" encoding="iso-8859-1" standalone="no"?> 
<?xml-stylesheet href="Napkin.css" type="text/css"?> 
<svg xmlns="http://www.w3.org/2000/svg" xmlns:xlink="http://www.w3.org/1999/xlink" width="273.17865pt" height="54.23294pt" viewBox="-128.76561 -27.11647 273.17865 54.23294 "> 
<g transform="translate(0, 27.11647 ) scale(1,-1) translate(0,27.11647 )"> 
                                   </p><g stroke="#000" fill="#000">
 <g stroke-width="0.4">
 <g transform="translate(-125.72153,-23.10909)">
 <g fill="#000">
 <text style="stroke:none" transform="scale(1,-1) translate(125.72153,0)" text-anchor="middle"  font-size="10.95"> 
  <g transform="translate(-4.25835,0.0)">
 <g fill="#000">
 <text style="stroke:none" transform="scale(1,-1) translate(4.25835,0)" text-anchor="middle"  font-size="10.95"> 
<g fill="#000">
 <g stroke="none"> <tspan font-family="msbm" font-size="10">ℚ</tspan></g> </g>
 </text> 
</g>
 </g>
               <g transform="translate(-14.41435,0.0)">
 <g fill="#000">
 <text style="stroke:none" transform="scale(1,-1) translate(14.41435,0)" text-anchor="middle"  font-size="10.95"> 
<g fill="#000">
 <g stroke="none"> <tspan font-family="msbm" font-size="10">ℚ</tspan>(<tspan font-family="cmmi" font-size="10">α</tspan><tspan baseline-shift="sub"><tspan font-family="cmr" font-size="8">1</tspan></tspan>)</g> </g>
 </text> 
</g>
 </g>
             <g transform="translate(-22.74533,0.0)">
 <g fill="#000">
 <text style="stroke:none" transform="scale(1,-1) translate(22.74533,0)" text-anchor="middle"  font-size="10.95"> 
<g fill="#000">
 <g stroke="none"> <tspan font-family="msbm" font-size="10">ℚ</tspan>(<tspan font-family="cmmi" font-size="10">α</tspan><tspan baseline-shift="sub"><tspan font-family="cmr" font-size="8">1</tspan></tspan><tspan font-family="cmmi" font-size="10">,α</tspan><tspan baseline-shift="sub"><tspan font-family="cmr" font-size="8">2</tspan></tspan>)</g> </g>
 </text> 
</g>
 </g>
     <g transform="translate(-3.1291,0.0)">
 <g fill="#000">
 <text style="stroke:none" transform="scale(1,-1) translate(3.1291,0)" text-anchor="middle"  font-size="10.95"> 
<g fill="#000">
 <g stroke="none"> <tspan font-family="cmmi" font-size="10">…</tspan></g> </g>
 </text> 
</g>
 </g>
          <g transform="translate(-5.04155,0.0)">
 <g fill="#000">
 <text style="stroke:none" transform="scale(1,-1) translate(5.04155,0)" text-anchor="middle"  font-size="10.95"> 
<g fill="#000">
 <g stroke="none"> <tspan font-family="cmmi" font-size="10">K</tspan></g> </g>
 </text> 
</g>
 </g>
 
  <g transform="translate(-3.95416,0.0)">
 <g fill="#000">
 <text style="stroke:none" transform="scale(1,-1) translate(3.95416,0)" text-anchor="middle"  font-size="10.95"> 
<g fill="#000">
 <g stroke="none"> <tspan font-family="msbm" font-size="10">ℂ</tspan></g> </g>
 </text> 
</g>
 </g>
               <g transform="translate(-3.95416,0.0)">
 <g fill="#000">
 <text style="stroke:none" transform="scale(1,-1) translate(3.95416,0)" text-anchor="middle"  font-size="10.95"> 
<g fill="#000">
 <g stroke="none"> <tspan font-family="msbm" font-size="10">ℂ</tspan></g> </g>
 </text> 
</g>
 </g>
                     <g transform="translate(-3.95416,0.0)">
 <g fill="#000">
 <text style="stroke:none" transform="scale(1,-1) translate(3.95416,0)" text-anchor="middle"  font-size="10.95"> 
<g fill="#000">
 <g stroke="none"> <tspan font-family="msbm" font-size="10">ℂ</tspan></g> </g>
 </text> 
</g>
 </g>
                 <g transform="translate(-3.1291,0.0)">
 <g fill="#000">
 <text style="stroke:none" transform="scale(1,-1) translate(3.1291,0)" text-anchor="middle"  font-size="10.95"> 
<g fill="#000">
 <g stroke="none"> <tspan font-family="cmmi" font-size="10">…</tspan></g> </g>
 </text> 
</g>
 </g>
          <g transform="translate(-3.95416,0.0)">
 <g fill="#000">
 <text style="stroke:none" transform="scale(1,-1) translate(3.95416,0)" text-anchor="middle"  font-size="10.95"> 
<g fill="#000">
 <g stroke="none"> <tspan font-family="msbm" font-size="10">ℂ</tspan></g> </g>
 </text> 
</g>
 </g>
 </text> 
</g>
 </g>
 <g stroke-width="0.43799">
 <path d=" M -105.99895 17.63406 L -82.13368 17.63406  " fill="none"/>
 <g transform="matrix(-1.0,0.0,0.0,1.0,-105.99895,17.63406)">
 <g stroke-dasharray="none" stroke-dashoffset="0.0">
 <g stroke-linejoin="miter">
 <g stroke-linecap="round">
 <path d=" M 0.0 2.14612 C 0.74988 2.14612 1.35776 1.6657 1.35776 1.07306 C 1.35776 0.48042 0.74988 0.0 0.0 0.0  " fill="none"/>
 </g>
 </g>
 </g>
  </g>
 <g transform="translate(-81.91469,17.63406)">
 <g stroke-dasharray="none" stroke-dashoffset="0.0">
 <g stroke-linecap="round">
 <g stroke-linejoin="round">
 <path d=" M -2.27753 2.6279 C -1.86143 1.05113 -0.9342 0.30658 0.0 0.0 C -0.9342 -0.30658 -1.86143 -1.05113 -2.27753 -2.6279  " fill="none"/>
 </g>
 </g>
 </g>
  </g>
 </g>
 <g stroke-width="0.43799">
 <path d=" M -116.74861 7.28743 L -116.74861 -10.9204  " fill="none"/>
 <g transform="matrix(0.0,1.0,1.0,0.0,-116.74861,7.28743)">
 <g stroke-dasharray="none" stroke-dashoffset="0.0">
 <g stroke-linejoin="miter">
 <g stroke-linecap="round">
 <path d=" M 0.0 2.14612 C 0.74988 2.14612 1.35776 1.6657 1.35776 1.07306 C 1.35776 0.48042 0.74988 0.0 0.0 0.0  " fill="none"/>
 </g>
 </g>
 </g>
  </g>
 <g transform="matrix(0.0,-1.0,1.0,0.0,-116.74861,-11.13939)">
 <g stroke-dasharray="none" stroke-dashoffset="0.0">
 <g stroke-linecap="round">
 <g stroke-linejoin="round">
 <path d=" M -2.27753 2.6279 C -1.86143 1.05113 -0.9342 0.30658 0.0 0.0 C -0.9342 -0.30658 -1.86143 -1.05113 -2.27753 -2.6279  " fill="none"/>
 </g>
 </g>
 </g>
  </g>
 <g transform="translate(-126.40833,-4.02487)">
 <g fill="#000">
 <text style="stroke:none" transform="scale(1,-1) translate(3.54172,0)" text-anchor="middle"  font-size="10.95"> 
<g fill="#000">
 <g stroke="none"> <tspan font-family="cmr" font-size="8">id</tspan> </g> </g>
 </text> 
</g>
 </g>
 </g>
 <g stroke-width="0.43799">
 <path d=" M -41.4611 17.63406 L -17.59584 17.63406  " fill="none"/>
 <g transform="matrix(-1.0,0.0,0.0,1.0,-41.4611,17.63406)">
 <g stroke-dasharray="none" stroke-dashoffset="0.0">
 <g stroke-linejoin="miter">
 <g stroke-linecap="round">
 <path d=" M 0.0 2.14612 C 0.74988 2.14612 1.35776 1.6657 1.35776 1.07306 C 1.35776 0.48042 0.74988 0.0 0.0 0.0  " fill="none"/>
 </g>
 </g>
 </g>
  </g>
 <g transform="translate(-17.37685,17.63406)">
 <g stroke-dasharray="none" stroke-dashoffset="0.0">
 <g stroke-linecap="round">
 <g stroke-linejoin="round">
 <path d=" M -2.27753 2.6279 C -1.86143 1.05113 -0.9342 0.30658 0.0 0.0 C -0.9342 -0.30658 -1.86143 -1.05113 -2.27753 -2.6279  " fill="none"/>
 </g>
 </g>
 </g>
  </g>
 </g>
 <g stroke-width="0.43799">
 <path d=" M -62.36678 6.37494 L -62.36678 -10.9204  " fill="none"/>
 <g transform="matrix(0.0,1.0,1.0,0.0,-62.36678,6.37494)">
 <g stroke-dasharray="none" stroke-dashoffset="0.0">
 <g stroke-linejoin="miter">
 <g stroke-linecap="round">
 <path d=" M 0.0 2.14612 C 0.74988 2.14612 1.35776 1.6657 1.35776 1.07306 C 1.35776 0.48042 0.74988 0.0 0.0 0.0  " fill="none"/>
 </g>
 </g>
 </g>
  </g>
 <g transform="matrix(0.0,-1.0,1.0,0.0,-62.36678,-11.13939)">
 <g stroke-dasharray="none" stroke-dashoffset="0.0">
 <g stroke-linecap="round">
 <g stroke-linejoin="round">
 <path d=" M -2.27753 2.6279 C -1.86143 1.05113 -0.9342 0.30658 0.0 0.0 C -0.9342 -0.30658 -1.86143 -1.05113 -2.27753 -2.6279  " fill="none"/>
 </g>
 </g>
 </g>
  </g>
 <g transform="translate(-73.80554,-2.87001)">
 <g fill="#000">
 <text style="stroke:none" transform="scale(1,-1) translate(4.43124,0)" text-anchor="middle"  font-size="10.95"> 
<g fill="#000">
 <g stroke="none"> <tspan font-family="cmmi" font-size="8">τ</tspan><tspan baseline-shift="sub"><tspan font-family="cmr" font-size="6">1</tspan> </tspan> </g> </g>
 </text> 
</g>
 </g>
 </g>
 <g stroke-width="0.43799">
 <path d=" M 39.7387 17.63406 L 63.60396 17.63406  " fill="none"/>
 <g transform="matrix(-1.0,0.0,0.0,1.0,39.7387,17.63406)">
 <g stroke-dasharray="none" stroke-dashoffset="0.0">
 <g stroke-linejoin="miter">
 <g stroke-linecap="round">
 <path d=" M 0.0 2.14612 C 0.74988 2.14612 1.35776 1.6657 1.35776 1.07306 C 1.35776 0.48042 0.74988 0.0 0.0 0.0  " fill="none"/>
 </g>
 </g>
 </g>
  </g>
 <g transform="translate(63.82295,17.63406)">
 <g stroke-dasharray="none" stroke-dashoffset="0.0">
 <g stroke-linecap="round">
 <g stroke-linejoin="round">
 <path d=" M -2.27753 2.6279 C -1.86143 1.05113 -0.9342 0.30658 0.0 0.0 C -0.9342 -0.30658 -1.86143 -1.05113 -2.27753 -2.6279  " fill="none"/>
 </g>
 </g>
 </g>
  </g>
 </g>
 <g stroke-width="0.43799">
 <path d=" M 10.50204 6.37494 L 10.50204 -10.9204  " fill="none"/>
 <g transform="matrix(0.0,1.0,1.0,0.0,10.50204,6.37494)">
 <g stroke-dasharray="none" stroke-dashoffset="0.0">
 <g stroke-linejoin="miter">
 <g stroke-linecap="round">
 <path d=" M 0.0 2.14612 C 0.74988 2.14612 1.35776 1.6657 1.35776 1.07306 C 1.35776 0.48042 0.74988 0.0 0.0 0.0  " fill="none"/>
 </g>
 </g>
 </g>
  </g>
 <g transform="matrix(0.0,-1.0,1.0,0.0,10.50204,-11.13939)">
 <g stroke-dasharray="none" stroke-dashoffset="0.0">
 <g stroke-linecap="round">
 <g stroke-linejoin="round">
 <path d=" M -2.27753 2.6279 C -1.86143 1.05113 -0.9342 0.30658 0.0 0.0 C -0.9342 -0.30658 -1.86143 -1.05113 -2.27753 -2.6279  " fill="none"/>
 </g>
 </g>
 </g>
  </g>
 <g transform="translate(-0.93672,-2.87001)">
 <g fill="#000">
 <text style="stroke:none" transform="scale(1,-1) translate(4.43124,0)" text-anchor="middle"  font-size="10.95"> 
<g fill="#000">
 <g stroke="none"> <tspan font-family="cmmi" font-size="8">τ</tspan><tspan baseline-shift="sub"><tspan font-family="cmr" font-size="6">2</tspan> </tspan> </g> </g>
 </text> 
</g>
 </g>
 </g>
 <g stroke-width="0.43799">
 <path d=" M 81.70604 17.63406 L 105.5713 17.63406  " fill="none"/>
 <g transform="matrix(-1.0,0.0,0.0,1.0,81.70604,17.63406)">
 <g stroke-dasharray="none" stroke-dashoffset="0.0">
 <g stroke-linejoin="miter">
 <g stroke-linecap="round">
 <path d=" M 0.0 2.14612 C 0.74988 2.14612 1.35776 1.6657 1.35776 1.07306 C 1.35776 0.48042 0.74988 0.0 0.0 0.0  " fill="none"/>
 </g>
 </g>
 </g>
  </g>
 <g transform="translate(105.7903,17.63406)">
 <g stroke-dasharray="none" stroke-dashoffset="0.0">
 <g stroke-linecap="round">
 <g stroke-linejoin="round">
 <path d=" M -2.27753 2.6279 C -1.86143 1.05113 -0.9342 0.30658 0.0 0.0 C -0.9342 -0.30658 -1.86143 -1.05113 -2.27753 -2.6279  " fill="none"/>
 </g>
 </g>
 </g>
  </g>
 </g>
 <g stroke-width="0.43799">
 <path d=" M 115.96541 9.11243 L 115.96541 -10.9204  " fill="none"/>
 <g transform="matrix(0.0,1.0,1.0,0.0,115.96541,9.11243)">
 <g stroke-dasharray="none" stroke-dashoffset="0.0">
 <g stroke-linejoin="miter">
 <g stroke-linecap="round">
 <path d=" M 0.0 2.14612 C 0.74988 2.14612 1.35776 1.6657 1.35776 1.07306 C 1.35776 0.48042 0.74988 0.0 0.0 0.0  " fill="none"/>
 </g>
 </g>
 </g>
  </g>
 <g transform="matrix(0.0,-1.0,1.0,0.0,115.96541,-11.13939)">
 <g stroke-dasharray="none" stroke-dashoffset="0.0">
 <g stroke-linecap="round">
 <g stroke-linejoin="round">
 <path d=" M -2.27753 2.6279 C -1.86143 1.05113 -0.9342 0.30658 0.0 0.0 C -0.9342 -0.30658 -1.86143 -1.05113 -2.27753 -2.6279  " fill="none"/>
 </g>
 </g>
 </g>
  </g>
 <g transform="translate(118.54169,-1.55681)">
 <g fill="#000">
 <text style="stroke:none" transform="scale(1,-1) translate(11.75703,0)" text-anchor="middle"  font-size="10.95"> 
<g fill="#000">
 <g stroke="none"> <tspan font-family="cmmi" font-size="8">τ</tspan><tspan baseline-shift="sub"><tspan font-family="cmmi" font-size="6">m</tspan> </tspan> <tspan font-family="cmr" font-size="8">=</tspan><tspan font-family="cmmi" font-size="8">σ</tspan> </g> </g>
 </text> 
</g>
 </g>
 </g>
 <g stroke-width="0.43799">
 <path d=" M -107.87988 -20.3716 L -71.6735 -20.3716  " fill="none"/>
 <g transform="translate(-71.4545,-20.3716)">
 <g stroke-dasharray="none" stroke-dashoffset="0.0">
 <g stroke-linecap="round">
 <g stroke-linejoin="round">
 <path d=" M -2.27753 2.6279 C -1.86143 1.05113 -0.9342 0.30658 0.0 0.0 C -0.9342 -0.30658 -1.86143 -1.05113 -2.27753 -2.6279  " fill="none"/>
 </g>
 </g>
 </g>
  </g>
 </g>
 <g stroke-width="0.43799">
 <path d=" M -53.49805 -20.3716 L 1.19533 -20.3716  " fill="none"/>
 <g transform="translate(1.41432,-20.3716)">
 <g stroke-dasharray="none" stroke-dashoffset="0.0">
 <g stroke-linecap="round">
 <g stroke-linejoin="round">
 <path d=" M -2.27753 2.6279 C -1.86143 1.05113 -0.9342 0.30658 0.0 0.0 C -0.9342 -0.30658 -1.86143 -1.05113 -2.27753 -2.6279  " fill="none"/>
 </g>
 </g>
 </g>
  </g>
 </g>
 <g stroke-width="0.43799">
 <path d=" M 19.37077 -20.3716 L 63.60396 -20.3716  " fill="none"/>
 <g transform="translate(63.82295,-20.3716)">
 <g stroke-dasharray="none" stroke-dashoffset="0.0">
 <g stroke-linecap="round">
 <g stroke-linejoin="round">
 <path d=" M -2.27753 2.6279 C -1.86143 1.05113 -0.9342 0.30658 0.0 0.0 C -0.9342 -0.30658 -1.86143 -1.05113 -2.27753 -2.6279  " fill="none"/>
 </g>
 </g>
 </g>
  </g>
 </g>
 <g stroke-width="0.43799">
 <path d=" M 80.12929 -20.3716 L 106.65869 -20.3716  " fill="none"/>
 <g transform="translate(106.87769,-20.3716)">
 <g stroke-dasharray="none" stroke-dashoffset="0.0">
 <g stroke-linecap="round">
 <g stroke-linejoin="round">
 <path d=" M -2.27753 2.6279 C -1.86143 1.05113 -0.9342 0.30658 0.0 0.0 C -0.9342 -0.30658 -1.86143 -1.05113 -2.27753 -2.6279  " fill="none"/>
 </g>
 </g>
 </g>
  </g>
 </g>
 </g>
 </g>
  </g> 
</svg> 
