<?xml version="1.0" encoding="iso-8859-1" standalone="no"?> 
<?xml-stylesheet href="Napkin.css" type="text/css"?> 
<svg xmlns="http://www.w3.org/2000/svg" xmlns:xlink="http://www.w3.org/1999/xlink" width="163.95834pt" height="131.96997pt" viewBox="-81.97917 -65.98499 163.95834 131.96997 "> 
<g transform="translate(0, 65.98499 ) scale(1,-1) translate(0,65.98499 )"> 
                      </p><g stroke="#000" fill="#000">
 <g stroke-width="0.4">
 <g transform="translate(-81.97917,-59.24011)">
 <g fill="#000">
 <text style="stroke:none" transform="scale(1,-1) translate(81.97917,0)" text-anchor="middle"  font-size="10.95"> 
        <g transform="translate(-24.44664,0.0)">
 <g fill="#000">
 <text style="stroke:none" transform="scale(1,-1) translate(24.44664,0)" text-anchor="middle"  font-size="10.95"> 
<g fill="#000">
 <g stroke="none"> <tspan font-family="eufm" font-size="10">𝔭 </tspan><tspan font-family="cmsy" font-size="10">⊂𝒪</tspan><tspan baseline-shift="sub"><tspan font-family="cmmi" font-size="8">K</tspan></tspan> <tspan font-family="cmsy" font-size="10">⊂</tspan></g> </g>
 </text> 
</g>
 </g>
   <g transform="translate(-5.04155,0.0)">
 <g fill="#000">
 <text style="stroke:none" transform="scale(1,-1) translate(5.04155,0)" text-anchor="middle"  font-size="10.95"> 
<g fill="#000">
 <g stroke="none"> <tspan font-family="cmmi" font-size="10">K</tspan></g> </g>
 </text> 
</g>
 </g>
           <g transform="translate(-8.21251,0.0)">
 <g fill="#000">
 <text style="stroke:none" transform="scale(1,-1) translate(8.21251,0)" text-anchor="middle"  font-size="10.95"> 
<g fill="#000">
 <g stroke="none"> <tspan font-family="cmsy" font-size="10">{</tspan>1<tspan font-family="cmsy" font-size="10">}</tspan></g> </g>
 </text> 
</g>
 </g>
 
   <g transform="translate(-1.5208,0.0)">
 <g fill="#000">
 <text style="stroke:none" transform="scale(1,-1) translate(1.5208,0)" text-anchor="middle"  font-size="10.95"> 
<g fill="#000">
 <g stroke="none"> </g> </g>
 </text> 
</g>
 </g>
         <g transform="translate(-7.44644,0.0)">
 <g fill="#000">
 <text style="stroke:none" transform="scale(1,-1) translate(7.44644,0)" text-anchor="middle"  font-size="10.95"> 
<g fill="#000">
 <g stroke="none"> <tspan font-family="cmmi" font-size="10">K</tspan><tspan baseline-shift="sub"><tspan font-family="cmmi" font-size="8">I</tspan></tspan></g> </g>
 </text> 
</g>
 </g>
            <g transform="translate(-2.83635,0.0)">
 <g fill="#000">
 <text style="stroke:none" transform="scale(1,-1) translate(2.83635,0)" text-anchor="middle"  font-size="10.95"> 
<g fill="#000">
 <g stroke="none"> <tspan font-family="cmmi" font-size="10">I</tspan></g> </g>
 </text> 
</g>
 </g>
 
       <g transform="translate(-1.5208,0.0)">
 <g fill="#000">
 <text style="stroke:none" transform="scale(1,-1) translate(1.5208,0)" text-anchor="middle"  font-size="10.95"> 
<g fill="#000">
 <g stroke="none">  </g> </g>
 </text> 
</g>
 </g>
                <g transform="translate(-8.89632,0.0)">
 <g fill="#000">
 <text style="stroke:none" transform="scale(1,-1) translate(8.89632,0)" text-anchor="middle"  font-size="10.95"> 
<g fill="#000">
 <g stroke="none"> <tspan font-family="cmmi" font-size="10">K</tspan><tspan baseline-shift="sub"><tspan font-family="cmmi" font-size="8">D</tspan></tspan></g> </g>
 </text> 
</g>
 </g>
           <g transform="translate(-4.68492,0.0)">
 <g fill="#000">
 <text style="stroke:none" transform="scale(1,-1) translate(4.68492,0)" text-anchor="middle"  font-size="10.95"> 
<g fill="#000">
 <g stroke="none"> <tspan font-family="cmmi" font-size="10">D</tspan></g> </g>
 </text> 
</g>
 </g>
 
       <g transform="translate(-23.74207,0.0)">
 <g fill="#000">
 <text style="stroke:none" transform="scale(1,-1) translate(23.74207,0)" text-anchor="middle"  font-size="10.95"> 
<g fill="#000">
 <g stroke="none"> (<tspan font-family="cmmi" font-size="10">p</tspan>) <tspan font-family="cmsy" font-size="10">⊂ </tspan><tspan font-family="msbm" font-size="10">ℤ </tspan><tspan font-family="cmsy" font-size="10">⊂</tspan></g> </g>
 </text> 
</g>
 </g>
    <g transform="translate(-4.25835,0.0)">
 <g fill="#000">
 <text style="stroke:none" transform="scale(1,-1) translate(4.25835,0)" text-anchor="middle"  font-size="10.95"> 
<g fill="#000">
 <g stroke="none"> <tspan font-family="msbm" font-size="10">ℚ</tspan></g> </g>
 </text> 
</g>
 </g>
              <g transform="translate(-4.3047,0.0)">
 <g fill="#000">
 <text style="stroke:none" transform="scale(1,-1) translate(4.3047,0)" text-anchor="middle"  font-size="10.95"> 
<g fill="#000">
 <g stroke="none"> <tspan font-family="cmmi" font-size="10">G</tspan></g> </g>
 </text> 
</g>
 </g>
 </text> 
</g>
 </g>
 <g stroke-width="0.43799">
 <path d=" M 26.62823 56.50258 L 55.48703 56.50258  " fill="none"/>
 <g transform="matrix(-1.0,0.0,0.0,-1.0,26.40924,56.50258)">
 <g stroke-dasharray="none" stroke-dashoffset="0.0">
 <g stroke-linecap="round">
 <g stroke-linejoin="round">
 <path d=" M -2.27753 2.6279 C -1.86143 1.05113 -0.9342 0.30658 0.0 0.0 C -0.9342 -0.30658 -1.86143 -1.05113 -2.27753 -2.6279  " fill="none"/>
 </g>
 </g>
 </g>
  </g>
 <g transform="translate(55.70602,56.50258)">
 <g stroke-dasharray="none" stroke-dashoffset="0.0">
 <g stroke-linecap="round">
 <g stroke-linejoin="round">
 <path d=" M -2.27753 2.6279 C -1.86143 1.05113 -0.9342 0.30658 0.0 0.0 C -0.9342 -0.30658 -1.86143 -1.05113 -2.27753 -2.6279  " fill="none"/>
 </g>
 </g>
 </g>
  </g>
 </g>
 <g stroke-width="0.43799">
 <path d=" M 16.23413 49.5577 L 16.23413 27.94812  " fill="none"/>
 <g transform="matrix(0.0,-1.0,1.0,0.0,16.23413,27.72913)">
 <g stroke-dasharray="none" stroke-dashoffset="0.0">
 <g stroke-linecap="round">
 <g stroke-linejoin="round">
 <path d=" M -2.27753 2.6279 C -1.86143 1.05113 -0.9342 0.30658 0.0 0.0 C -0.9342 -0.30658 -1.86143 -1.05113 -2.27753 -2.6279  " fill="none"/>
 </g>
 </g>
 </g>
  </g>
 <g transform="translate(-21.1693,35.79642)">
 <g fill="#000">
 <text style="stroke:none" transform="scale(1,-1) translate(17.41357,0)" text-anchor="middle"  font-size="10.95"> 
<g fill="#000">
 <g stroke="none"> Ramify </g> </g>
 </text> 
</g>
 </g>
 </g>
 <g stroke-width="0.43799">
 <path d=" M 69.0521 46.8202 L 69.0521 25.9903  " fill="none"/>
 <g transform="matrix(0.0,-1.0,1.0,0.0,69.0521,25.7713)">
 <g stroke-dasharray="none" stroke-dashoffset="0.0">
 <g stroke-linecap="round">
 <g stroke-linejoin="round">
 <path d=" M -2.27753 2.6279 C -1.86143 1.05113 -0.9342 0.30658 0.0 0.0 C -0.9342 -0.30658 -1.86143 -1.05113 -2.27753 -2.6279  " fill="none"/>
 </g>
 </g>
 </g>
  </g>
 <g transform="translate(71.62837,34.46405)">
 <g fill="#000">
 <text style="stroke:none" transform="scale(1,-1) translate(1.97156,0)" text-anchor="middle"  font-size="10.95"> 
<g fill="#000">
 <g stroke="none"> <tspan font-family="cmmi" font-size="8">e</tspan> </g> </g>
 </text> 
</g>
 </g>
 </g>
 <g stroke-width="0.43799">
 <path d=" M 16.23413 9.65503 L 16.23413 -9.21706  " fill="none"/>
 <g transform="matrix(0.0,-1.0,1.0,0.0,16.23413,-9.43605)">
 <g stroke-dasharray="none" stroke-dashoffset="0.0">
 <g stroke-linecap="round">
 <g stroke-linejoin="round">
 <path d=" M -2.27753 2.6279 C -1.86143 1.05113 -0.9342 0.30658 0.0 0.0 C -0.9342 -0.30658 -1.86143 -1.05113 -2.27753 -2.6279  " fill="none"/>
 </g>
 </g>
 </g>
  </g>
 <g transform="translate(-9.79341,-3.74124)">
 <g fill="#000">
 <text style="stroke:none" transform="scale(1,-1) translate(11.72563,0)" text-anchor="middle"  font-size="10.95"> 
<g fill="#000">
 <g stroke="none"> Inert </g> </g>
 </text> 
</g>
 </g>
 </g>
 <g stroke-width="0.43799">
 <path d=" M 69.0521 9.65503 L 69.0521 -11.17488  " fill="none"/>
 <g transform="matrix(0.0,-1.0,1.0,0.0,69.0521,-11.39388)">
 <g stroke-dasharray="none" stroke-dashoffset="0.0">
 <g stroke-linecap="round">
 <g stroke-linejoin="round">
 <path d=" M -2.27753 2.6279 C -1.86143 1.05113 -0.9342 0.30658 0.0 0.0 C -0.9342 -0.30658 -1.86143 -1.05113 -2.27753 -2.6279  " fill="none"/>
 </g>
 </g>
 </g>
  </g>
 <g transform="translate(71.62837,-2.97891)">
 <g fill="#000">
 <text style="stroke:none" transform="scale(1,-1) translate(2.48265,0)" text-anchor="middle"  font-size="10.95"> 
<g fill="#000">
 <g stroke="none"> <tspan font-family="cmmi" font-size="8">f</tspan> </g> </g>
 </text> 
</g>
 </g>
 </g>
 <g stroke-width="0.43799">
 <path d=" M 16.23413 -27.51015 L 16.23413 -47.0514  " fill="none"/>
 <g transform="matrix(0.0,-1.0,1.0,0.0,16.23413,-47.2704)">
 <g stroke-dasharray="none" stroke-dashoffset="0.0">
 <g stroke-linecap="round">
 <g stroke-linejoin="round">
 <path d=" M -2.27753 2.6279 C -1.86143 1.05113 -0.9342 0.30658 0.0 0.0 C -0.9342 -0.30658 -1.86143 -1.05113 -2.27753 -2.6279  " fill="none"/>
 </g>
 </g>
 </g>
  </g>
 <g transform="translate(-8.85051,-40.23727)">
 <g fill="#000">
 <text style="stroke:none" transform="scale(1,-1) translate(11.25418,0)" text-anchor="middle"  font-size="10.95"> 
<g fill="#000">
 <g stroke="none"> Split </g> </g>
 </text> 
</g>
 </g>
 </g>
 <g stroke-width="0.43799">
 <path d=" M 69.0521 -27.51015 L 69.0521 -47.11224  " fill="none"/>
 <g transform="matrix(0.0,-1.0,1.0,0.0,69.0521,-47.33124)">
 <g stroke-dasharray="none" stroke-dashoffset="0.0">
 <g stroke-linecap="round">
 <g stroke-linejoin="round">
 <path d=" M -2.27753 2.6279 C -1.86143 1.05113 -0.9342 0.30658 0.0 0.0 C -0.9342 -0.30658 -1.86143 -1.05113 -2.27753 -2.6279  " fill="none"/>
 </g>
 </g>
 </g>
  </g>
 <g transform="translate(71.62837,-38.47462)">
 <g fill="#000">
 <text style="stroke:none" transform="scale(1,-1) translate(2.166,0)" text-anchor="middle"  font-size="10.95"> 
<g fill="#000">
 <g stroke="none"> <tspan font-family="cmmi" font-size="8">g</tspan> </g> </g>
 </text> 
</g>
 </g>
 </g>
 <g stroke-width="0.43799">
 <path d=" M 25.84503 -56.50262 L 59.39484 -56.50262  " fill="none"/>
 <g transform="matrix(-1.0,0.0,0.0,-1.0,25.62604,-56.50262)">
 <g stroke-dasharray="none" stroke-dashoffset="0.0">
 <g stroke-linecap="round">
 <g stroke-linejoin="round">
 <path d=" M -2.27753 2.6279 C -1.86143 1.05113 -0.9342 0.30658 0.0 0.0 C -0.9342 -0.30658 -1.86143 -1.05113 -2.27753 -2.6279  " fill="none"/>
 </g>
 </g>
 </g>
  </g>
 <g transform="translate(59.61383,-56.50262)">
 <g stroke-dasharray="none" stroke-dashoffset="0.0">
 <g stroke-linecap="round">
 <g stroke-linejoin="round">
 <path d=" M -2.27753 2.6279 C -1.86143 1.05113 -0.9342 0.30658 0.0 0.0 C -0.9342 -0.30658 -1.86143 -1.05113 -2.27753 -2.6279  " fill="none"/>
 </g>
 </g>
 </g>
  </g>
 </g>
 </g>
 </g>
  </g> 
</svg> 
