<?xml version="1.0" encoding="iso-8859-1" standalone="no"?> 
<?xml-stylesheet href="Napkin.css" type="text/css"?> 
<svg xmlns="http://www.w3.org/2000/svg" xmlns:xlink="http://www.w3.org/1999/xlink" width="271.3482pt" height="57.63962pt" viewBox="-128.8112 -28.81981 271.3482 57.63962 "> 
<g transform="translate(0, 28.81981 ) scale(1,-1) translate(0,28.81981 )"> 
                                   </p><g stroke="#000" fill="#000">
 <g stroke-width="0.4">
 <g transform="translate(-125.78992,-22.07494)">
 <g fill="#000">
 <text style="stroke:none" transform="scale(1,-1) translate(125.78992,0)" text-anchor="middle"  font-size="10.95"> 
  <g transform="translate(-4.28114,0.0)">
 <g fill="#000">
 <text style="stroke:none" transform="scale(1,-1) translate(4.28114,0)" text-anchor="middle"  font-size="10.95"> 
<g fill="#000">
 <g stroke="none"> <tspan font-family="cmmi" font-size="10">F</tspan></g> </g>
 </text> 
</g>
 </g>
            <g transform="translate(-14.43715,0.0)">
 <g fill="#000">
 <text style="stroke:none" transform="scale(1,-1) translate(14.43715,0)" text-anchor="middle"  font-size="10.95"> 
<g fill="#000">
 <g stroke="none"> <tspan font-family="cmmi" font-size="10">F</tspan>(<tspan font-family="cmmi" font-size="10">α</tspan><tspan baseline-shift="sub"><tspan font-family="cmr" font-size="8">1</tspan></tspan>)</g> </g>
 </text> 
</g>
 </g>
             <g transform="translate(-22.76813,0.0)">
 <g fill="#000">
 <text style="stroke:none" transform="scale(1,-1) translate(22.76813,0)" text-anchor="middle"  font-size="10.95"> 
<g fill="#000">
 <g stroke="none"> <tspan font-family="cmmi" font-size="10">F</tspan>(<tspan font-family="cmmi" font-size="10">α</tspan><tspan baseline-shift="sub"><tspan font-family="cmr" font-size="8">1</tspan></tspan><tspan font-family="cmmi" font-size="10">,α</tspan><tspan baseline-shift="sub"><tspan font-family="cmr" font-size="8">2</tspan></tspan>)</g> </g>
 </text> 
</g>
 </g>
     <g transform="translate(-3.1291,0.0)">
 <g fill="#000">
 <text style="stroke:none" transform="scale(1,-1) translate(3.1291,0)" text-anchor="middle"  font-size="10.95"> 
<g fill="#000">
 <g stroke="none"> <tspan font-family="cmmi" font-size="10">…</tspan></g> </g>
 </text> 
</g>
 </g>
          <g transform="translate(-5.04155,0.0)">
 <g fill="#000">
 <text style="stroke:none" transform="scale(1,-1) translate(5.04155,0)" text-anchor="middle"  font-size="10.95"> 
<g fill="#000">
 <g stroke="none"> <tspan font-family="cmmi" font-size="10">K</tspan></g> </g>
 </text> 
</g>
 </g>
 
  <g transform="translate(-4.28114,0.0)">
 <g fill="#000">
 <text style="stroke:none" transform="scale(1,-1) translate(4.28114,0)" text-anchor="middle"  font-size="10.95"> 
<g fill="#000">
 <g stroke="none"> <tspan font-family="cmmi" font-size="10">F</tspan></g> </g>
 </text> 
</g>
 </g>
            <g transform="translate(-14.43715,0.0)">
 <g fill="#000">
 <text style="stroke:none" transform="scale(1,-1) translate(14.43715,0)" text-anchor="middle"  font-size="10.95"> 
<g fill="#000">
 <g stroke="none"> <tspan font-family="cmmi" font-size="10">F</tspan>(<tspan font-family="cmmi" font-size="10">α</tspan><tspan baseline-shift="sub"><tspan font-family="cmr" font-size="8">1</tspan></tspan>)</g> </g>
 </text> 
</g>
 </g>
             <g transform="translate(-22.76813,0.0)">
 <g fill="#000">
 <text style="stroke:none" transform="scale(1,-1) translate(22.76813,0)" text-anchor="middle"  font-size="10.95"> 
<g fill="#000">
 <g stroke="none"> <tspan font-family="cmmi" font-size="10">F</tspan>(<tspan font-family="cmmi" font-size="10">α</tspan><tspan baseline-shift="sub"><tspan font-family="cmr" font-size="8">1</tspan></tspan><tspan font-family="cmmi" font-size="10">,α</tspan><tspan baseline-shift="sub"><tspan font-family="cmr" font-size="8">2</tspan></tspan>)</g> </g>
 </text> 
</g>
 </g>
     <g transform="translate(-3.1291,0.0)">
 <g fill="#000">
 <text style="stroke:none" transform="scale(1,-1) translate(3.1291,0)" text-anchor="middle"  font-size="10.95"> 
<g fill="#000">
 <g stroke="none"> <tspan font-family="cmmi" font-size="10">…</tspan></g> </g>
 </text> 
</g>
 </g>
          <g transform="translate(-5.04155,0.0)">
 <g fill="#000">
 <text style="stroke:none" transform="scale(1,-1) translate(5.04155,0)" text-anchor="middle"  font-size="10.95"> 
<g fill="#000">
 <g stroke="none"> <tspan font-family="cmmi" font-size="10">K</tspan></g> </g>
 </text> 
</g>
 </g>
 </text> 
</g>
 </g>
 <g stroke-width="0.43799">
 <path d=" M -106.02174 19.3374 L -82.15648 19.3374  " fill="none"/>
 <g transform="matrix(-1.0,0.0,0.0,1.0,-106.02174,19.3374)">
 <g stroke-dasharray="none" stroke-dashoffset="0.0">
 <g stroke-linejoin="miter">
 <g stroke-linecap="round">
 <path d=" M 0.0 2.14612 C 0.74988 2.14612 1.35776 1.6657 1.35776 1.07306 C 1.35776 0.48042 0.74988 0.0 0.0 0.0  " fill="none"/>
 </g>
 </g>
 </g>
  </g>
 <g transform="translate(-81.93748,19.3374)">
 <g stroke-dasharray="none" stroke-dashoffset="0.0">
 <g stroke-linecap="round">
 <g stroke-linejoin="round">
 <path d=" M -2.27753 2.6279 C -1.86143 1.05113 -0.9342 0.30658 0.0 0.0 C -0.9342 -0.30658 -1.86143 -1.05113 -2.27753 -2.6279  " fill="none"/>
 </g>
 </g>
 </g>
  </g>
 </g>
 <g stroke-width="0.43799">
 <path d=" M -116.7942 12.39252 L -116.7942 -9.94707  " fill="none"/>
 <g transform="matrix(0.0,-1.0,1.0,0.0,-116.7942,-10.16606)">
 <g stroke-dasharray="none" stroke-dashoffset="0.0">
 <g stroke-linecap="round">
 <g stroke-linejoin="round">
 <path d=" M -2.27753 2.6279 C -1.86143 1.05113 -0.9342 0.30658 0.0 0.0 C -0.9342 -0.30658 -1.86143 -1.05113 -2.27753 -2.6279  " fill="none"/>
 </g>
 </g>
 </g>
  </g>
 <g transform="translate(-126.45392,-1.77403)">
 <g fill="#000">
 <text style="stroke:none" transform="scale(1,-1) translate(3.54172,0)" text-anchor="middle"  font-size="10.95"> 
<g fill="#000">
 <g stroke="none"> <tspan font-family="cmr" font-size="8">id</tspan> </g> </g>
 </text> 
</g>
 </g>
 </g>
 <g stroke-width="0.43799">
 <path d=" M -41.43831 19.3374 L -17.57304 19.3374  " fill="none"/>
 <g transform="matrix(-1.0,0.0,0.0,1.0,-41.43831,19.3374)">
 <g stroke-dasharray="none" stroke-dashoffset="0.0">
 <g stroke-linejoin="miter">
 <g stroke-linecap="round">
 <path d=" M 0.0 2.14612 C 0.74988 2.14612 1.35776 1.6657 1.35776 1.07306 C 1.35776 0.48042 0.74988 0.0 0.0 0.0  " fill="none"/>
 </g>
 </g>
 </g>
  </g>
 <g transform="translate(-17.35405,19.3374)">
 <g stroke-dasharray="none" stroke-dashoffset="0.0">
 <g stroke-linecap="round">
 <g stroke-linejoin="round">
 <path d=" M -2.27753 2.6279 C -1.86143 1.05113 -0.9342 0.30658 0.0 0.0 C -0.9342 -0.30658 -1.86143 -1.05113 -2.27753 -2.6279  " fill="none"/>
 </g>
 </g>
 </g>
  </g>
 </g>
 <g stroke-width="0.43799">
 <path d=" M -62.36678 9.65503 L -62.36678 -9.21706  " fill="none"/>
 <g transform="matrix(0.0,-1.0,1.0,0.0,-62.36678,-9.43605)">
 <g stroke-dasharray="none" stroke-dashoffset="0.0">
 <g stroke-linecap="round">
 <g stroke-linejoin="round">
 <path d=" M -2.27753 2.6279 C -1.86143 1.05113 -0.9342 0.30658 0.0 0.0 C -0.9342 -0.30658 -1.86143 -1.05113 -2.27753 -2.6279  " fill="none"/>
 </g>
 </g>
 </g>
  </g>
 <g transform="translate(-73.80554,-1.16667)">
 <g fill="#000">
 <text style="stroke:none" transform="scale(1,-1) translate(4.43124,0)" text-anchor="middle"  font-size="10.95"> 
<g fill="#000">
 <g stroke="none"> <tspan font-family="cmmi" font-size="8">τ</tspan><tspan baseline-shift="sub"><tspan font-family="cmr" font-size="6">1</tspan> </tspan> </g> </g>
 </text> 
</g>
 </g>
 </g>
 <g stroke-width="0.43799">
 <path d=" M 39.80708 19.3374 L 63.67235 19.3374  " fill="none"/>
 <g transform="matrix(-1.0,0.0,0.0,1.0,39.80708,19.3374)">
 <g stroke-dasharray="none" stroke-dashoffset="0.0">
 <g stroke-linejoin="miter">
 <g stroke-linecap="round">
 <path d=" M 0.0 2.14612 C 0.74988 2.14612 1.35776 1.6657 1.35776 1.07306 C 1.35776 0.48042 0.74988 0.0 0.0 0.0  " fill="none"/>
 </g>
 </g>
 </g>
  </g>
 <g transform="translate(63.89134,19.3374)">
 <g stroke-dasharray="none" stroke-dashoffset="0.0">
 <g stroke-linecap="round">
 <g stroke-linejoin="round">
 <path d=" M -2.27753 2.6279 C -1.86143 1.05113 -0.9342 0.30658 0.0 0.0 C -0.9342 -0.30658 -1.86143 -1.05113 -2.27753 -2.6279  " fill="none"/>
 </g>
 </g>
 </g>
  </g>
 </g>
 <g stroke-width="0.43799">
 <path d=" M 10.54764 9.65503 L 10.54764 -9.21706  " fill="none"/>
 <g transform="matrix(0.0,-1.0,1.0,0.0,10.54764,-9.43605)">
 <g stroke-dasharray="none" stroke-dashoffset="0.0">
 <g stroke-linecap="round">
 <g stroke-linejoin="round">
 <path d=" M -2.27753 2.6279 C -1.86143 1.05113 -0.9342 0.30658 0.0 0.0 C -0.9342 -0.30658 -1.86143 -1.05113 -2.27753 -2.6279  " fill="none"/>
 </g>
 </g>
 </g>
  </g>
 <g transform="translate(-0.89113,-1.16667)">
 <g fill="#000">
 <text style="stroke:none" transform="scale(1,-1) translate(4.43124,0)" text-anchor="middle"  font-size="10.95"> 
<g fill="#000">
 <g stroke="none"> <tspan font-family="cmmi" font-size="8">τ</tspan><tspan baseline-shift="sub"><tspan font-family="cmr" font-size="6">2</tspan> </tspan> </g> </g>
 </text> 
</g>
 </g>
 </g>
 <g stroke-width="0.43799">
 <path d=" M 81.77443 19.3374 L 105.6397 19.3374  " fill="none"/>
 <g transform="matrix(-1.0,0.0,0.0,1.0,81.77443,19.3374)">
 <g stroke-dasharray="none" stroke-dashoffset="0.0">
 <g stroke-linejoin="miter">
 <g stroke-linecap="round">
 <path d=" M 0.0 2.14612 C 0.74988 2.14612 1.35776 1.6657 1.35776 1.07306 C 1.35776 0.48042 0.74988 0.0 0.0 0.0  " fill="none"/>
 </g>
 </g>
 </g>
  </g>
 <g transform="translate(105.85869,19.3374)">
 <g stroke-dasharray="none" stroke-dashoffset="0.0">
 <g stroke-linecap="round">
 <g stroke-linejoin="round">
 <path d=" M -2.27753 2.6279 C -1.86143 1.05113 -0.9342 0.30658 0.0 0.0 C -0.9342 -0.30658 -1.86143 -1.05113 -2.27753 -2.6279  " fill="none"/>
 </g>
 </g>
 </g>
  </g>
 </g>
 <g stroke-width="0.43799">
 <path d=" M 116.0338 12.39252 L 116.0338 -9.94707  " fill="none"/>
 <g transform="matrix(0.0,-1.0,1.0,0.0,116.0338,-10.16606)">
 <g stroke-dasharray="none" stroke-dashoffset="0.0">
 <g stroke-linecap="round">
 <g stroke-linejoin="round">
 <path d=" M -2.27753 2.6279 C -1.86143 1.05113 -0.9342 0.30658 0.0 0.0 C -0.9342 -0.30658 -1.86143 -1.05113 -2.27753 -2.6279  " fill="none"/>
 </g>
 </g>
 </g>
  </g>
 <g transform="translate(118.61008,-0.21848)">
 <g fill="#000">
 <text style="stroke:none" transform="scale(1,-1) translate(10.78482,0)" text-anchor="middle"  font-size="10.95"> 
<g fill="#000">
 <g stroke="none"> <tspan font-family="cmmi" font-size="8">τ</tspan><tspan baseline-shift="sub"><tspan font-family="cmmi" font-size="6">n</tspan> </tspan> <tspan font-family="cmr" font-size="8">=</tspan><tspan font-family="cmmi" font-size="8">σ</tspan> </g> </g>
 </text> 
</g>
 </g>
 </g>
 <g stroke-width="0.43799">
 <path d=" M -106.02174 -19.33745 L -82.15648 -19.33745  " fill="none"/>
 <g transform="matrix(-1.0,0.0,0.0,1.0,-106.02174,-19.33745)">
 <g stroke-dasharray="none" stroke-dashoffset="0.0">
 <g stroke-linejoin="miter">
 <g stroke-linecap="round">
 <path d=" M 0.0 2.14612 C 0.74988 2.14612 1.35776 1.6657 1.35776 1.07306 C 1.35776 0.48042 0.74988 0.0 0.0 0.0  " fill="none"/>
 </g>
 </g>
 </g>
  </g>
 <g transform="translate(-81.93748,-19.33745)">
 <g stroke-dasharray="none" stroke-dashoffset="0.0">
 <g stroke-linecap="round">
 <g stroke-linejoin="round">
 <path d=" M -2.27753 2.6279 C -1.86143 1.05113 -0.9342 0.30658 0.0 0.0 C -0.9342 -0.30658 -1.86143 -1.05113 -2.27753 -2.6279  " fill="none"/>
 </g>
 </g>
 </g>
  </g>
 </g>
 <g stroke-width="0.43799">
 <path d=" M -41.43831 -19.33745 L -17.57304 -19.33745  " fill="none"/>
 <g transform="matrix(-1.0,0.0,0.0,1.0,-41.43831,-19.33745)">
 <g stroke-dasharray="none" stroke-dashoffset="0.0">
 <g stroke-linejoin="miter">
 <g stroke-linecap="round">
 <path d=" M 0.0 2.14612 C 0.74988 2.14612 1.35776 1.6657 1.35776 1.07306 C 1.35776 0.48042 0.74988 0.0 0.0 0.0  " fill="none"/>
 </g>
 </g>
 </g>
  </g>
 <g transform="translate(-17.35405,-19.33745)">
 <g stroke-dasharray="none" stroke-dashoffset="0.0">
 <g stroke-linecap="round">
 <g stroke-linejoin="round">
 <path d=" M -2.27753 2.6279 C -1.86143 1.05113 -0.9342 0.30658 0.0 0.0 C -0.9342 -0.30658 -1.86143 -1.05113 -2.27753 -2.6279  " fill="none"/>
 </g>
 </g>
 </g>
  </g>
 </g>
 <g stroke-width="0.43799">
 <path d=" M 39.80708 -19.33745 L 63.67235 -19.33745  " fill="none"/>
 <g transform="matrix(-1.0,0.0,0.0,1.0,39.80708,-19.33745)">
 <g stroke-dasharray="none" stroke-dashoffset="0.0">
 <g stroke-linejoin="miter">
 <g stroke-linecap="round">
 <path d=" M 0.0 2.14612 C 0.74988 2.14612 1.35776 1.6657 1.35776 1.07306 C 1.35776 0.48042 0.74988 0.0 0.0 0.0  " fill="none"/>
 </g>
 </g>
 </g>
  </g>
 <g transform="translate(63.89134,-19.33745)">
 <g stroke-dasharray="none" stroke-dashoffset="0.0">
 <g stroke-linecap="round">
 <g stroke-linejoin="round">
 <path d=" M -2.27753 2.6279 C -1.86143 1.05113 -0.9342 0.30658 0.0 0.0 C -0.9342 -0.30658 -1.86143 -1.05113 -2.27753 -2.6279  " fill="none"/>
 </g>
 </g>
 </g>
  </g>
 </g>
 <g stroke-width="0.43799">
 <path d=" M 81.77443 -19.33745 L 105.6397 -19.33745  " fill="none"/>
 <g transform="matrix(-1.0,0.0,0.0,1.0,81.77443,-19.33745)">
 <g stroke-dasharray="none" stroke-dashoffset="0.0">
 <g stroke-linejoin="miter">
 <g stroke-linecap="round">
 <path d=" M 0.0 2.14612 C 0.74988 2.14612 1.35776 1.6657 1.35776 1.07306 C 1.35776 0.48042 0.74988 0.0 0.0 0.0  " fill="none"/>
 </g>
 </g>
 </g>
  </g>
 <g transform="translate(105.85869,-19.33745)">
 <g stroke-dasharray="none" stroke-dashoffset="0.0">
 <g stroke-linecap="round">
 <g stroke-linejoin="round">
 <path d=" M -2.27753 2.6279 C -1.86143 1.05113 -0.9342 0.30658 0.0 0.0 C -0.9342 -0.30658 -1.86143 -1.05113 -2.27753 -2.6279  " fill="none"/>
 </g>
 </g>
 </g>
  </g>
 </g>
 </g>
 </g>
  </g> 
</svg> 
