<?xml version="1.0" encoding="iso-8859-1" standalone="no"?> 
<?xml-stylesheet href="Napkin.css" type="text/css"?> 
<svg xmlns="http://www.w3.org/2000/svg" xmlns:xlink="http://www.w3.org/1999/xlink" width="122.43588pt" height="95.76477pt" viewBox="-61.21794 -47.88239 122.43588 95.76477 "> 
<g transform="translate(0, 47.88239 ) scale(1,-1) translate(0,47.88239 )"> 
                 </p><g stroke="#000" fill="#000">
 <g stroke-width="0.4">
 <g transform="translate(-61.21794,-42.04999)">
 <g fill="#000">
 <text style="stroke:none" transform="scale(1,-1) translate(61.21794,0)" text-anchor="middle"  font-size="10.95"> 
          <g transform="translate(-24.63297,0.0)">
 <g fill="#000">
 <text style="stroke:none" transform="scale(1,-1) translate(24.63297,0)" text-anchor="middle"  font-size="10.95"> 
<g fill="#000">
 <g stroke="none"> <tspan font-family="cmmi" font-size="10">L </tspan>= <tspan font-family="msbm" font-size="10">ℚ</tspan>(<tspan font-family="cmmi" font-size="10">ζ</tspan><tspan baseline-shift="sub"><tspan font-family="cmmi" font-size="8">q</tspan></tspan>)</g> </g>
 </text> 
</g>
 </g>
        <g transform="translate(-8.21251,0.0)">
 <g fill="#000">
 <text style="stroke:none" transform="scale(1,-1) translate(8.21251,0)" text-anchor="middle"  font-size="10.95"> 
<g fill="#000">
 <g stroke="none"> <tspan font-family="cmsy" font-size="10">{</tspan>1<tspan font-family="cmsy" font-size="10">}</tspan></g> </g>
 </text> 
</g>
 </g>
 
    <g transform="translate(-30.4363,0.0)">
 <g fill="#000">
 <text style="stroke:none" transform="scale(1,-1) translate(30.4363,0)" text-anchor="middle"  font-size="10.95"> 
<g fill="#000">
 <g stroke="none"> <tspan font-family="cmmi" font-size="10">K </tspan>= <tspan font-family="msbm" font-size="10">ℚ</tspan>(<img 
src="Na2766x.png" alt="√q-∗"  class="sqrt"  />)</g> </g>
 </text> 
</g>
 </g>
     <g transform="translate(-4.99593,0.0)">
 <g fill="#000">
 <text style="stroke:none" transform="scale(1,-1) translate(4.99593,0)" text-anchor="middle"  font-size="10.95"> 
<g fill="#000">
 <g stroke="none"> <tspan font-family="cmmi" font-size="10">H</tspan></g> </g>
 </text> 
</g>
 </g>
 
        <g transform="translate(-4.25835,0.0)">
 <g fill="#000">
 <text style="stroke:none" transform="scale(1,-1) translate(4.25835,0)" text-anchor="middle"  font-size="10.95"> 
<g fill="#000">
 <g stroke="none"> <tspan font-family="msbm" font-size="10">ℚ</tspan></g> </g>
 </text> 
</g>
 </g>
                     <g transform="translate(-4.3047,0.0)">
 <g fill="#000">
 <text style="stroke:none" transform="scale(1,-1) translate(4.3047,0)" text-anchor="middle"  font-size="10.95"> 
<g fill="#000">
 <g stroke="none"> <tspan font-family="cmmi" font-size="10">G</tspan></g> </g>
 </text> 
</g>
 </g>
 </text> 
</g>
 </g>
 <g stroke-width="0.43799">
 <path d=" M -26.06708 28.25706 L -26.06708 8.94699  " fill="none"/>
 <g transform="translate(-44.12724,16.38403)">
 <g fill="#000">
 <text style="stroke:none" transform="scale(1,-1) translate(7.74194,0)" text-anchor="middle"  font-size="10.95"> 
<g fill="#000">
 <g stroke="none"> <img 
src="Na2767x.png" alt="q−1
 2"  class="frac" align="middle" /></g> </g>
 </text> 
</g>
 </g>
 </g>
 <g stroke-width="0.43799">
 <path d=" M 3.91844 38.39998 L 34.7258 38.39998  " fill="none"/>
 <g transform="matrix(-1.0,0.0,0.0,-1.0,3.69945,38.39998)">
 <g stroke-dasharray="none" stroke-dashoffset="0.0">
 <g stroke-linecap="round">
 <g stroke-linejoin="round">
 <path d=" M -2.27753 2.6279 C -1.86143 1.05113 -0.9342 0.30658 0.0 0.0 C -0.9342 -0.30658 -1.86143 -1.05113 -2.27753 -2.6279  " fill="none"/>
 </g>
 </g>
 </g>
  </g>
 <g transform="translate(34.9448,38.39998)">
 <g stroke-dasharray="none" stroke-dashoffset="0.0">
 <g stroke-linecap="round">
 <g stroke-linejoin="round">
 <path d=" M -2.27753 2.6279 C -1.86143 1.05113 -0.9342 0.30658 0.0 0.0 C -0.9342 -0.30658 -1.86143 -1.05113 -2.27753 -2.6279  " fill="none"/>
 </g>
 </g>
 </g>
  </g>
 </g>
 <g stroke-width="0.43799">
 <path d=" M 48.29086 28.7176 L 48.29086 7.64557  " fill="none"/>
 </g>
 <g stroke-width="0.43799">
 <path d=" M -26.06708 -10.9892 L -26.06708 -30.29927  " fill="none"/>
 <g transform="translate(-32.89342,-23.222)">
 <g fill="#000">
 <text style="stroke:none" transform="scale(1,-1) translate(2.12503,0)" text-anchor="middle"  font-size="10.95"> 
<g fill="#000">
 <g stroke="none"> <tspan font-family="cmr" font-size="8">2</tspan> </g> </g>
 </text> 
</g>
 </g>
 </g>
 <g stroke-width="0.43799">
 <path d=" M 9.72177 -1.30682 L 37.94238 -1.30682  " fill="none"/>
 <g transform="matrix(-1.0,0.0,0.0,-1.0,9.50278,-1.30682)">
 <g stroke-dasharray="none" stroke-dashoffset="0.0">
 <g stroke-linecap="round">
 <g stroke-linejoin="round">
 <path d=" M -2.27753 2.6279 C -1.86143 1.05113 -0.9342 0.30658 0.0 0.0 C -0.9342 -0.30658 -1.86143 -1.05113 -2.27753 -2.6279  " fill="none"/>
 </g>
 </g>
 </g>
  </g>
 <g transform="translate(38.16138,-1.30682)">
 <g stroke-dasharray="none" stroke-dashoffset="0.0">
 <g stroke-linecap="round">
 <g stroke-linejoin="round">
 <path d=" M -2.27753 2.6279 C -1.86143 1.05113 -0.9342 0.30658 0.0 0.0 C -0.9342 -0.30658 -1.86143 -1.05113 -2.27753 -2.6279  " fill="none"/>
 </g>
 </g>
 </g>
  </g>
 </g>
 <g stroke-width="0.43799">
 <path d=" M 48.29086 -8.25171 L 48.29086 -30.3601  " fill="none"/>
 </g>
 <g stroke-width="0.43799">
 <path d=" M -16.45618 -39.3125 L 38.6336 -39.3125  " fill="none"/>
 <g transform="matrix(-1.0,0.0,0.0,-1.0,-16.67517,-39.3125)">
 <g stroke-dasharray="none" stroke-dashoffset="0.0">
 <g stroke-linecap="round">
 <g stroke-linejoin="round">
 <path d=" M -2.27753 2.6279 C -1.86143 1.05113 -0.9342 0.30658 0.0 0.0 C -0.9342 -0.30658 -1.86143 -1.05113 -2.27753 -2.6279  " fill="none"/>
 </g>
 </g>
 </g>
  </g>
 <g transform="translate(38.8526,-39.3125)">
 <g stroke-dasharray="none" stroke-dashoffset="0.0">
 <g stroke-linecap="round">
 <g stroke-linejoin="round">
 <path d=" M -2.27753 2.6279 C -1.86143 1.05113 -0.9342 0.30658 0.0 0.0 C -0.9342 -0.30658 -1.86143 -1.05113 -2.27753 -2.6279  " fill="none"/>
 </g>
 </g>
 </g>
  </g>
 </g>
 </g>
 </g>
                 </g> 
</svg> 
