<?xml version="1.0" encoding="iso-8859-1" standalone="no"?> 
<?xml-stylesheet href="Napkin.css" type="text/css"?> 
<svg xmlns="http://www.w3.org/2000/svg" xmlns:xlink="http://www.w3.org/1999/xlink" width="418.25555pt" height="113.81102pt" viewBox="-57.90549 -74.13187 418.25555 113.81102 "> 
<g transform="translate(0,
39.67915 ) scale(1,-1) translate(0,74.13187 )"> 
           </p>
           <g stroke="#000" fill="#000">
 <g stroke-width="0.4">
 <g fill="#999">
 <g stroke="#999">
 <g stroke-width="2.0">
 <path d=" M -56.90549 -73.13187 M -56.90549 -73.13187 L -56.90549 38.67915 L 359.35007 38.67915 L 359.35007 -73.13187 Z M 359.35007 38.67915  " />
 </g>
 </g>
 </g>
 <path d=" M 56.90549 -14.22636  " fill="none"/>
 <g transform="translate(60.7551,-16.22636)">
 <g fill="#000">
 <text style="stroke:none" transform="scale(1,-1) translate(144.10907,0)" text-anchor="middle"  font-size="10.95"> 
<g fill="#000">
 <g stroke="none"> <tspan font-family="cmr" font-size="8">circles covered by rectangles</tspan>                                                                 </g> </g>
 </text> 
</g>
 </g>
 <g stroke="#f00" fill="#f00">
 <g fill="#fff">
 <g stroke-width="10.0">
 <path d=" M 44.28174 28.45274 L -44.28174 28.45274 C -47.0432 28.45274 -48.16249 26.51413 -46.78181 24.12268 L -2.49992 -52.57544 C -1.11925 -54.96689 1.11925 -54.96689 2.49992 -52.57544 L 46.78181 24.12268 C 48.16249 26.51413 47.0432 28.45274 44.28174 28.45274 Z  " />
 </g>
 </g>
 </g>
 <path d=" M 0.0 8.5359  " fill="none"/>
 <g transform="translate(-18.15877,5.85924)">
 <g fill="#000">
 <text style="stroke:none" transform="scale(1,-1) translate(18.15877,0)" text-anchor="middle"  font-size="10.95"> 
<g fill="#000">
 <g stroke="none"> Missing </g> </g>
 </text> 
</g>
 </g>
 <path d=" M 0.0 -8.5359  " fill="none"/>
 <g transform="translate(-13.39856,-11.2734)">
 <g fill="#000">
 <text style="stroke:none" transform="scale(1,-1) translate(13.39856,0)" text-anchor="middle"  font-size="10.95"> 
<g fill="#000">
 <g stroke="none"> figure </g> </g>
 </text> 
</g>
 </g>
 </g>
 </g>
 
                                                                                </g> 
</svg> 
